HIERARCHY
ROOT Hips
{
    OFFSET 0.000000 0.000000 0.000000
    CHANNELS 6 Xposition Yposition Zposition Zrotation Xrotation Yrotation
    JOINT Spine
    {
        OFFSET -0.000000 0.083210 0.000000
        CHANNELS 3 Zrotation Xrotation Yrotation
        JOINT Spine1
        {
            OFFSET -0.000000 0.256334 0.000000
            CHANNELS 3 Zrotation Xrotation Yrotation
            JOINT Neck
            {
                OFFSET -0.000000 0.275576 0.002912
                CHANNELS 3 Zrotation Xrotation Yrotation
                JOINT Head
                {
                    OFFSET -0.000000 0.157287 0.020295
                    CHANNELS 3 Zrotation Xrotation Yrotation
                    End Site
                    {
                        OFFSET -0.000000 0.202951 0.000000
                    }
                }
            }
            JOINT LeftShoulder
            {
                OFFSET 0.041044 0.235234 -0.000041
                CHANNELS 3 Zrotation Xrotation Yrotation
                JOINT LeftArm
                {
                    OFFSET 0.117964 0.000000 0.000000
                    CHANNELS 3 Zrotation Xrotation Yrotation
                    JOINT LeftForeArm
                    {
                        OFFSET 0.291248 0.000000 0.000000
                        CHANNELS 3 Zrotation Xrotation Yrotation
                        JOINT LeftHand
                        {
                            OFFSET 0.245673 0.000000 0.000000
                            CHANNELS 3 Zrotation Xrotation Yrotation
                            End Site
                            {
                                OFFSET 0.152213 0.000000 0.000000
                            }
                        }
                    }
                }
            }
            JOINT RightShoulder
            {
                OFFSET -0.040052 0.235234 -0.000041
                CHANNELS 3 Zrotation Xrotation Yrotation
                JOINT RightArm
                {
                    OFFSET -0.117964 0.000000 0.000000
                    CHANNELS 3 Zrotation Xrotation Yrotation
                    JOINT RightForeArm
                    {
                        OFFSET -0.291248 0.000000 0.000000
                        CHANNELS 3 Zrotation Xrotation Yrotation
                        JOINT RightHand
                        {
                            OFFSET -0.245673 0.000000 0.000000
                            CHANNELS 3 Zrotation Xrotation Yrotation
                            End Site
                            {
                                OFFSET -0.152213 0.000000 0.000000
                            }
                        }
                    }
                }
            }
        }
    }
    JOINT LeftUpLeg
    {
        OFFSET 0.101475 0.000000 0.000000
        CHANNELS 3 Zrotation Xrotation Yrotation
        JOINT LeftLeg
        {
            OFFSET -0.000000 -0.446535 0.000000
            CHANNELS 3 Zrotation Xrotation Yrotation
            JOINT LeftFoot
            {
                OFFSET -0.000000 -0.400037 0.000000
                CHANNELS 3 Zrotation Xrotation Yrotation
                JOINT LeftToeBase
                {
                    OFFSET -0.000000 -0.065959 0.152213
                    CHANNELS 3 Zrotation Xrotation Yrotation
                    End Site
                    {
                        OFFSET -0.000000 0.000000 0.040590
                    }
                }
            }
        }
    }
    JOINT RightUpLeg
    {
        OFFSET -0.101475 0.000000 0.000000
        CHANNELS 3 Zrotation Xrotation Yrotation
        JOINT RightLeg
        {
            OFFSET -0.000000 -0.446535 0.000000
            CHANNELS 3 Zrotation Xrotation Yrotation
            JOINT RightFoot
            {
                OFFSET -0.000000 -0.400037 0.000000
                CHANNELS 3 Zrotation Xrotation Yrotation
                JOINT RightToeBase
                {
                    OFFSET -0.000000 -0.065959 0.152213
                    CHANNELS 3 Zrotation Xrotation Yrotation
                    End Site
                    {
                        OFFSET -0.000000 0.000000 0.040590
                    }
                }
            }
        }
    }
}
MOTION
Frames:    10
Frame Time:    0.008333
0.509397    0.870867    0.414442    -4.376765    2.632047    -94.731667    -1.938228    3.073548    -0.424421    -0.068013    -3.170197    -0.162033    4.328521    8.688860    0.995861    3.019154    2.026557    1.495419    42.642689    -15.752909    10.523400    1.497443    -13.428806    -21.791899    59.866627    -34.612289    -49.493061    14.411679    -5.362534    3.184736    -31.294250    -11.600826    -3.331604    -5.445854    -9.050655    14.848125    -54.573540    -40.613411    43.528049    -9.119035    -19.369658    -10.304210    22.067339    -2.198104    -17.736025    1.579133    34.005608    -6.393243    -21.736128    -22.786787    -7.049828    -0.020592    -4.987273    0.484784    -21.517626    -3.177103    20.508749    -0.696002    35.238102    12.548895    24.446058    -19.302742    -9.679190    -0.376653    -14.891753    -2.417425    
0.510733    0.857954    0.414225    -4.989496    2.658274    -94.385338    -1.750655    4.461287    -0.582205    -0.380111    -3.505702    -0.229534    4.473236    7.413147    1.059278    3.204936    2.215732    1.509037    44.330379    -16.254961    11.029688    1.081688    -14.400109    -22.987602    60.785091    -35.254456    -49.605045    17.175884    -5.351632    3.316562    -33.062523    -12.300439    -4.243752    -5.048004    -8.499502    15.407665    -56.658775    -43.641254    44.319313    -10.868819    -21.588945    -9.487348    22.096865    -2.599093    -15.731712    3.025163    36.313213    -9.742484    -21.845234    -26.375326    -6.637151    0.009185    -2.516353    -0.143520    -21.560915    -3.039223    20.204920    -1.164050    37.235607    15.120191    24.268196    -23.236818    -10.695989    -0.311231    -13.120227    -2.219623    
0.511849    0.846296    0.413740    -5.650513    2.539052    -93.935135    -1.749482    5.807463    -0.745936    -0.429957    -3.770988    -0.293083    3.992377    6.093111    1.167418    3.730136    2.518020    1.391498    45.120892    -17.050224    11.028901    0.992668    -15.127848    -23.828869    61.286980    -35.911037    -49.606716    20.128450    -5.627432    3.899313    -35.421181    -13.218996    -5.424819    -3.820263    -8.137587    16.243036    -58.815655    -45.763855    45.165401    -12.267806    -22.548243    -9.844518    21.992046    -2.997793    -13.570547    4.936497    38.381870    -13.562529    -21.663210    -29.410215    -6.297599    0.029166    -0.683713    -0.364897    -21.782932    -2.826841    18.316809    -2.405064    39.137726    18.744955    23.417933    -26.479776    -11.962774    -0.204713    -12.091912    -1.560522    
0.513937    0.837667    0.413262    -5.707030    2.174920    -93.321404    -1.983174    6.493782    -1.037599    -0.356029    -4.004460    -0.396473    3.260071    4.811958    1.275122    4.377325    3.035870    1.212107    45.275963    -17.927343    10.681514    0.936375    -15.760545    -24.447104    61.715683    -36.622177    -49.397118    20.996307    -6.172976    4.853545    -37.864094    -14.155897    -6.612796    -1.940783    -8.226532    17.226717    -61.240368    -46.684711    45.569611    -12.253832    -22.106874    -10.608772    21.729057    -4.057303    -12.010895    6.587672    39.908207    -16.310255    -21.993483    -31.037434    -6.722811    0.049430    0.258910    -0.561056    -22.317396    -3.092400    15.846434    -3.372710    40.618500    19.424482    23.381044    -27.998857    -10.737141    -0.130353    -11.019620    -1.070401    
0.516879    0.833037    0.412508    -4.893637    1.968686    -92.660408    -2.021365    6.115700    -1.396381    -0.668198    -4.247553    -0.526817    3.576795    4.236763    1.176882    4.346602    3.371592    1.140491    45.791138    -18.603283    10.140617    0.181915    -16.659529    -25.510702    61.274925    -37.009502    -49.629364    23.495003    -6.459661    5.821656    -38.517067    -14.952671    -6.830057    -0.988967    -8.494954    17.677717    -63.052002    -46.955425    45.623318    -13.195477    -21.243185    -11.350121    21.578682    -6.023473    -10.948277    8.063388    41.175800    -18.467701    -22.600840    -31.605169    -7.303080    0.061566    0.283315    -0.697139    -22.609356    -4.004254    13.127666    -4.144526    41.505600    19.748695    23.233013    -28.744749    -9.852105    -0.073263    -10.128028    -0.642816    
0.518907    0.831075    0.411790    -4.218359    1.856683    -92.078415    -2.004608    5.563416    -1.714427    -1.092880    -4.293068    -0.645466    4.208871    4.193687    1.039140    4.186009    3.410875    1.128596    45.678551    -19.092676    9.281583    -0.395722    -17.703894    -26.715702    60.677227    -37.032352    -49.643822    25.788933    -6.466879    7.085063    -38.002754    -15.487625    -6.406078    -0.533725    -9.022257    17.871706    -64.256813    -46.710091    45.460625    -14.245036    -20.120138    -12.236679    21.404892    -7.630850    -11.595036    8.317911    42.204887    -18.139307    -23.625427    -31.246826    -8.336356    0.064072    -0.095308    -0.753492    -22.854025    -4.571657    11.394216    -4.209686    41.864517    19.328026    23.176216    -29.025578    -9.344893    -0.013918    -9.557576    -0.127709    
0.519840    0.831449    0.410957    -3.985381    1.886642    -91.596153    -2.010512    5.296182    -2.003109    -1.264036    -4.140383    -0.745021    4.652928    4.050997    0.984111    4.141306    3.535414    1.144332    45.476677    -19.711369    8.621418    -1.554676    -18.330532    -27.856907    59.974869    -37.169525    -49.666050    25.951279    -6.851810    8.058995    -37.188988    -15.969751    -5.854105    -0.000161    -9.545476    18.044022    -64.569496    -46.309231    45.219181    -14.938114    -19.440639    -12.689410    21.321875    -8.551328    -12.999169    7.797806    42.951237    -17.251152    -24.028467    -30.595737    -8.539302    0.060854    -0.956435    -0.784542    -22.915062    -4.536244    10.589068    -3.915491    41.709255    18.072580    23.458410    -28.608397    -8.516254    0.021243    -9.261625    0.199665    
0.519957    0.833782    0.410081    -4.000287    1.991817    -91.270035    -2.044626    5.193749    -2.189967    -1.229039    -3.933098    -0.803757    4.790426    3.923819    0.983728    4.325895    3.627816    1.128982    44.834541    -20.153330    7.842195    -2.692350    -18.749332    -28.605112    58.816154    -37.452225    -49.818729    26.046955    -7.492945    9.577816    -36.398277    -16.483465    -5.119269    0.785577    -9.555277    17.903681    -64.620071    -45.843315    44.435005    -15.315103    -19.287325    -12.978089    21.316938    -8.904053    -14.307137    7.044082    43.246559    -16.286594    -23.978928    -29.736307    -8.198852    0.058730    -1.871929    -0.843606    -22.812799    -4.241442    10.156937    -3.794661    41.295208    17.470186    23.610893    -27.898121    -8.064219    0.021617    -9.423357    0.200515    
0.519546    0.837593    0.408995    -4.113096    2.182980    -91.118912    -2.053299    5.093092    -2.231287    -1.131661    -3.699694    -0.811442    4.882146    3.929499    0.953078    4.451368    3.673445    1.091195    43.802917    -20.348301    6.837101    -3.559801    -18.994629    -28.919741    57.341095    -37.718044    -49.972504    26.889479    -8.191623    11.262266    -35.325222    -16.595778    -4.160150    1.469279    -9.628043    17.421650    -63.703739    -45.358994    43.768452    -16.596813    -19.430389    -13.520609    21.499655    -8.816257    -15.281401    6.134971    43.017387    -14.908058    -23.716181    -28.526445    -7.938653    0.050066    -2.770549    -0.810111    -22.564379    -3.866356    10.036520    -3.751759    40.671856    17.435516    23.682339    -26.933115    -8.059882    0.010952    -9.915565    0.097692    
0.518470    0.842705    0.407688    -4.293883    2.405696    -91.130081    -2.077426    4.952087    -2.068380    -1.056726    -3.402393    -0.751447    5.036009    4.076429    0.830626    4.559468    3.534601    0.985077    42.654922    -20.357399    5.713021    -4.355347    -19.030270    -28.830391    55.467159    -37.938614    -50.142963    28.075731    -9.018464    12.851643    -34.053402    -16.411886    -3.135241    2.131196    -9.416127    16.570929    -62.741642    -44.951382    42.520851    -17.108402    -20.109999    -14.432440    21.842278    -8.272411    -15.651866    5.413203    42.144672    -13.928696    -23.258213    -27.173750    -7.546503    0.038928    -3.566805    -0.709530    -22.286577    -3.382931    10.457458    -3.350894    39.800045    17.235798    23.652020    -25.738522    -8.431676    0.005133    -10.599027    0.043470    
